<?xml version="1.0" encoding="UTF-8"?>
<svg id="_レイヤー_2" data-name="レイヤー 2" xmlns="http://www.w3.org/2000/svg" viewBox="0 0 160.58 42.67">
  <g id="_レイヤー_1-2" data-name="レイヤー 1">
    <path d="M42.91,33.54c-2.25,0-4.29-.53-6.11-1.59-1.82-1.06-3.25-2.5-4.3-4.32-1.05-1.82-1.57-3.84-1.57-6.06s.52-4.28,1.57-6.08c1.05-1.8,2.48-3.23,4.3-4.27,1.82-1.05,3.85-1.57,6.11-1.57,1.77,0,3.41.33,4.92.99,1.51.66,2.82,1.62,3.91,2.87l-2.9,2.9c-.71-.84-1.58-1.47-2.61-1.91-1.03-.43-2.14-.65-3.33-.65-1.45,0-2.74.33-3.86.99-1.13.66-2.01,1.57-2.65,2.73-.64,1.16-.97,2.49-.97,4.01s.32,2.85.97,4.01c.64,1.16,1.53,2.08,2.65,2.75,1.13.68,2.41,1.01,3.86,1.01,1.22,0,2.34-.22,3.35-.65,1.01-.43,1.89-1.07,2.63-1.91l2.85,2.9c-1.06,1.22-2.36,2.17-3.89,2.85-1.53.68-3.18,1.01-4.95,1.01Z"/>
    <path d="M55.07,33.06V10.14h4.34v22.93h-4.34ZM59.41,20.03l-1.64-.77c0-2.93.68-5.26,2.03-7,1.35-1.74,3.3-2.61,5.84-2.61,1.16,0,2.2.2,3.14.6.93.4,1.8,1.07,2.61,2l-2.85,2.94c-.48-.51-1.01-.88-1.59-1.11-.58-.22-1.25-.34-2.03-.34-1.61,0-2.93.52-3.96,1.54s-1.54,2.61-1.54,4.73Z"/>
    <path d="M76.55,5.55c-.8,0-1.46-.27-1.98-.8-.52-.53-.77-1.2-.77-2s.26-1.42.77-1.95c.51-.53,1.17-.8,1.98-.8s1.46.27,1.98.8c.51.53.77,1.18.77,1.95s-.26,1.47-.77,2c-.52.53-1.18.8-1.98.8ZM74.33,33.06V10.14h4.39v22.93h-4.39Z"/>
    <path d="M118.63,33.45c-1.9,0-3.6-.41-5.09-1.23-1.5-.82-2.66-1.99-3.5-3.5-.84-1.51-1.25-3.27-1.25-5.26v-13.32h4.34v13.13c0,1.25.22,2.34.65,3.26.43.92,1.07,1.62,1.91,2.1.84.48,1.82.72,2.94.72,1.71,0,3.04-.54,4.01-1.62.97-1.08,1.45-2.57,1.45-4.46v-13.13h4.34v13.32c0,2-.42,3.75-1.25,5.26-.84,1.51-2,2.68-3.48,3.5-1.48.82-3.17,1.23-5.07,1.23Z"/>
    <path d="M143.93,33.54c-2.32,0-4.38-.52-6.2-1.57-1.82-1.04-3.26-2.47-4.32-4.27-1.06-1.8-1.59-3.84-1.59-6.13s.52-4.28,1.57-6.08c1.05-1.8,2.46-3.23,4.25-4.27,1.79-1.05,3.79-1.57,6.01-1.57,2.09,0,3.96.48,5.6,1.45s2.92,2.3,3.84,4.01c.92,1.71,1.38,3.65,1.38,5.84,0,.32-.02.67-.05,1.04-.03.37-.1.78-.19,1.23h-19.35v-3.62h17.04l-1.59,1.4c0-1.54-.27-2.85-.82-3.93-.55-1.08-1.32-1.91-2.32-2.51-1-.59-2.2-.89-3.62-.89s-2.78.32-3.91.96c-1.13.64-2,1.54-2.61,2.7-.61,1.16-.92,2.53-.92,4.1s.32,3.02.96,4.22,1.56,2.14,2.75,2.8c1.19.66,2.56.99,4.1.99,1.29,0,2.47-.22,3.55-.67s2-1.13,2.78-2.03l2.8,2.85c-1.13,1.29-2.48,2.27-4.05,2.94-1.58.68-3.27,1.01-5.07,1.01Z"/>
    <g>
      <rect x="101.55" y="40.44" width="4.39" height="2.23"/>
      <path d="M88.23,31.98c1.71,1.05,3.6,1.57,5.7,1.57,1.77,0,3.34-.36,4.71-1.09,1.18-.63,2.15-1.47,2.92-2.52v4.74h4.39V10.14h-4.39v3.15c-.79-1.05-1.77-1.91-2.97-2.54-1.37-.72-2.92-1.09-4.66-1.09-2.12,0-4.03.53-5.72,1.59-1.69,1.06-3.02,2.49-4.01,4.3-.98,1.8-1.47,3.83-1.47,6.08s.49,4.28,1.47,6.08c.98,1.8,2.32,3.23,4.03,4.27Z"/>
      <path d="M105.94,35.71H30.49c-.82,0-1.56-.5-1.88-1.26L17.04,6.06h-3.28L0,39.55h4.88l3.03-7.58h14.84l2.36,5.93c.4,1,1.36,1.65,2.44,1.65h133.02v-3.84h-54.63ZM9.49,28.02l5.85-14.62,5.83,14.62h-11.68Z"/>
    </g>
  </g>
</svg>