<?xml version="1.0" encoding="UTF-8"?>
<svg id="_レイヤー_2" data-name="レイヤー 2" xmlns="http://www.w3.org/2000/svg" viewBox="0 0 158.3 41.12">
  <defs>
    <style>
      .cls-1 {
        fill: none;
      }
    </style>
  </defs>
  <g id="_レイヤー_1-2" data-name="レイヤー 1">
    <path d="M0,37.02L13.47,4.1h2.03l13.37,32.92h-2.8L13.9,6.71h1.06L2.75,37.02H0ZM5.89,27.32v-2.27h17.13v2.27H5.89Z"/>
    <path d="M41.85,32.1c-2.19,0-4.16-.52-5.91-1.57-1.75-1.05-3.15-2.46-4.17-4.25-1.03-1.79-1.54-3.77-1.54-5.96s.51-4.16,1.54-5.91c1.03-1.75,2.42-3.14,4.17-4.17,1.75-1.03,3.72-1.54,5.91-1.54,1.64,0,3.19.31,4.63.92,1.45.61,2.69,1.48,3.72,2.61l-1.64,1.64c-.84-.9-1.83-1.6-2.99-2.1-1.16-.5-2.4-.75-3.72-.75-1.74,0-3.29.41-4.66,1.23-1.37.82-2.45,1.92-3.26,3.31-.8,1.38-1.21,2.98-1.21,4.78s.4,3.41,1.21,4.83c.8,1.42,1.89,2.54,3.26,3.38,1.37.84,2.92,1.25,4.66,1.25,1.35,0,2.61-.25,3.79-.75,1.17-.5,2.18-1.21,3.02-2.15l1.64,1.64c-1.06,1.13-2.32,2-3.79,2.63-1.46.63-3.02.94-4.66.94Z"/>
    <path d="M54.49,31.61V9.17h2.46v22.44h-2.46ZM56.95,18.24l-1.21-.48c0-2.86.72-5.09,2.17-6.68,1.45-1.59,3.35-2.39,5.7-2.39,1.09,0,2.12.19,3.06.58.95.39,1.83,1.01,2.63,1.88l-1.64,1.74c-.61-.68-1.27-1.16-1.98-1.45-.71-.29-1.54-.43-2.51-.43-1.83,0-3.33.62-4.49,1.86-1.16,1.24-1.74,3.03-1.74,5.38Z"/>
    <path d="M74.47,3.96c-.55,0-1.01-.2-1.38-.6-.37-.4-.55-.88-.55-1.42s.18-1.01.55-1.38.83-.56,1.38-.56,1.01.19,1.4.56c.39.37.58.83.58,1.38s-.19,1.02-.58,1.42c-.39.4-.85.6-1.4.6ZM73.22,31.61V9.17h2.46v22.44h-2.46Z"/>
    <path d="M116.27,32.05c-1.8,0-3.41-.41-4.83-1.23-1.42-.82-2.52-1.97-3.31-3.45-.79-1.48-1.18-3.19-1.18-5.12v-13.08h2.46v12.98c0,1.51.28,2.84.84,3.98.56,1.14,1.36,2.04,2.39,2.68,1.03.64,2.22.97,3.57.97,2.09,0,3.76-.7,5-2.1s1.86-3.24,1.86-5.53v-12.98h2.46v13.08c0,1.93-.39,3.64-1.18,5.12-.79,1.48-1.88,2.63-3.28,3.45s-3,1.23-4.8,1.23Z"/>
    <path d="M141.61,32.1c-2.25,0-4.26-.51-6.03-1.54-1.77-1.03-3.17-2.43-4.2-4.2-1.03-1.77-1.54-3.76-1.54-5.98s.5-4.21,1.5-5.96c1-1.75,2.37-3.14,4.13-4.17,1.75-1.03,3.71-1.54,5.86-1.54,2.03,0,3.83.46,5.41,1.38s2.81,2.18,3.69,3.79c.88,1.61,1.33,3.48,1.33,5.6,0,.19-.02.44-.05.75-.03.31-.08.67-.14,1.09h-19.98v-2.12h18.58l-.82.68c.06-1.77-.22-3.32-.87-4.66-.64-1.33-1.58-2.37-2.8-3.11-1.22-.74-2.69-1.11-4.39-1.11s-3.33.39-4.68,1.18c-1.35.79-2.41,1.88-3.16,3.26-.76,1.38-1.13,2.99-1.13,4.83,0,1.93.39,3.61,1.18,5.04.79,1.43,1.89,2.54,3.31,3.33,1.42.79,3.07,1.18,4.97,1.18,1.45,0,2.79-.27,4.03-.8s2.28-1.33,3.11-2.39l1.64,1.59c-1.06,1.22-2.37,2.18-3.91,2.87-1.54.69-3.22,1.04-5.02,1.04Z"/>
    <g>
      <path class="cls-1" d="M99.76,15.49c-.71-1.42-1.71-2.52-2.99-3.31-1.29-.79-2.78-1.18-4.49-1.18s-3.29.4-4.66,1.21c-1.37.8-2.45,1.91-3.26,3.33-.8,1.42-1.21,3.02-1.21,4.83s.4,3.46,1.21,4.87c.8,1.42,1.9,2.53,3.28,3.33,1.38.8,2.96,1.21,4.73,1.21,2.57,0,4.62-.86,6.15-2.58,1.53-1.72,2.29-3.98,2.29-6.78,0-1.87-.35-3.51-1.06-4.92Z"/>
      <path d="M101.26,20.22l-.58-5.45v-1.16c-.21-.4-.45-.8-.72-1.16-.9-1.19-2.04-2.12-3.4-2.78-1.37-.66-2.9-.99-4.61-.99-2.16,0-4.08.52-5.77,1.57-1.69,1.05-3.03,2.45-4.03,4.22-1,1.77-1.5,3.75-1.5,5.94s.5,4.21,1.5,5.96c1,1.75,2.35,3.15,4.05,4.17,1.71,1.03,3.64,1.54,5.79,1.54,1.71,0,3.23-.33,4.58-.99,1.35-.66,2.47-1.59,3.35-2.8.28-.39.53-.8.75-1.24v-1.35l.58-5.5ZM98.53,27.2c-1.53,1.72-3.58,2.58-6.15,2.58-1.77,0-3.35-.4-4.73-1.21-1.38-.8-2.48-1.91-3.28-3.33-.8-1.42-1.21-3.04-1.21-4.87s.4-3.41,1.21-4.83c.8-1.42,1.89-2.53,3.26-3.33,1.37-.8,2.92-1.21,4.66-1.21s3.2.39,4.49,1.18c1.29.79,2.28,1.89,2.99,3.31.71,1.42,1.06,3.06,1.06,4.92,0,2.8-.76,5.06-2.29,6.78Z"/>
      <path d="M101.69,16.7c-.18-1.14-.52-2.17-1.01-3.09v1.16l.58,5.45-.58,5.5v1.35c.47-.91.82-1.92,1.01-3.04v-7.34Z"/>
      <rect x="26.06" y="34.73" width="74.62" height="2.29"/>
      <rect x="103.14" y="34.73" width="55.15" height="2.29"/>
      <path d="M100.68,27.07v6.73h2.46V9.17h-2.46v4.44c.49.92.83,1.95,1.01,3.09v7.34c-.2,1.11-.54,2.12-1.01,3.04Z"/>
      <rect x="100.68" y="37.94" width="2.46" height="3.18"/>
      <rect x="100.68" y="34.73" width="2.46" height="2.29"/>
    </g>
  </g>
</svg>